<svg version="1.1" id="Layer_1" xmlns="http://www.w3.org/2000/svg" xmlns:xlink="http://www.w3.org/1999/xlink" x="0px" y="0px"
	 width="100%" viewBox="0 0 1287 514" enable-background="new 0 0 1287 514" xml:space="preserve">
<path fill="#FFFFFF" opacity="1.000000" stroke="none" 
	d="
M833.000000,515.000000 
	C555.333374,515.000000 278.166687,515.000000 1.000037,515.000000 
	C1.000025,343.666687 1.000025,172.333389 1.000012,1.000060 
	C429.999969,1.000040 858.999939,1.000040 1288.000000,1.000020 
	C1288.000000,172.333267 1288.000000,343.666534 1288.000000,514.999878 
	C1136.500000,515.000000 985.000000,515.000000 833.000000,515.000000 
M261.072418,260.687103 
	C261.697205,254.560028 262.351044,248.435760 262.941711,242.305405 
	C265.288605,217.948929 267.606018,193.589615 269.962006,169.234024 
	C270.266388,166.087631 269.647217,161.814957 271.419647,160.130920 
	C273.297943,158.346359 277.524750,159.061401 280.717926,158.626556 
	C285.679901,157.950821 289.522827,155.717163 291.285217,150.749374 
	C292.930573,146.111328 291.650787,141.683990 288.123322,138.999603 
	C285.349823,136.888977 281.257538,135.796478 277.687286,135.631439 
	C273.377136,135.432205 271.123596,134.850113 270.630768,129.814087 
	C270.136261,124.760971 268.522308,119.702644 266.689880,114.918182 
	C262.355194,103.600365 256.199860,93.321854 244.040878,89.232323 
	C238.206131,87.269867 231.612625,87.004807 225.354858,86.954674 
	C197.202454,86.729118 169.046829,86.772545 140.893158,86.896950 
	C129.413208,86.947670 117.934952,87.439461 106.456459,87.750084 
	C98.189255,87.973801 92.034996,92.286560 86.772797,98.153305 
	C78.848518,106.987953 74.825874,117.689934 73.082489,129.170288 
	C72.335999,134.086014 70.783257,136.068497 65.628899,135.552765 
	C61.285816,135.118225 56.865486,135.862411 54.068897,139.958176 
	C51.185986,144.180389 51.273319,148.700790 53.177910,153.265488 
	C55.088062,157.843521 58.980560,158.670975 63.402248,158.692352 
	C70.831184,158.728317 70.898468,158.790833 71.442276,165.943253 
	C72.843506,184.373077 74.164299,202.808990 75.544243,221.240463 
	C77.744400,250.627396 79.975037,280.012054 82.176636,309.398865 
	C84.029945,334.136627 85.789345,358.881683 87.741829,383.611572 
	C88.367073,391.530823 92.290489,395.069336 100.488937,395.083008 
	C145.635361,395.158264 190.782043,395.154480 235.928452,395.076691 
	C244.591125,395.061737 248.065979,392.001129 249.052734,383.359924 
	C250.374466,371.785492 251.222321,360.157776 252.366684,348.562103 
	C255.227371,319.575348 258.140533,290.593750 261.072418,260.687103 
M336.901337,287.500000 
	C336.901337,217.087738 336.901337,146.675476 336.901337,76.198792 
	C330.078400,76.198792 323.980988,76.198792 317.620789,76.198792 
	C317.620789,186.186005 317.620789,295.907379 317.620789,405.767212 
	C324.120361,405.767212 330.325500,405.767212 336.901276,405.767212 
	C336.901276,366.426971 336.901276,327.463501 336.901337,287.500000 
M1086.585449,252.880676 
	C1087.073730,255.662552 1087.361938,258.497345 1088.081787,261.217957 
	C1093.886230,283.157379 1106.802979,298.599121 1129.380127,304.094391 
	C1152.980713,309.838745 1174.198486,305.226898 1190.477539,286.165131 
	C1202.824341,271.707703 1205.625610,254.089767 1204.959351,235.613831 
	C1203.605835,198.081177 1177.129883,173.501633 1139.783936,176.131271 
	C1120.379272,177.497635 1104.997070,186.606232 1094.951416,203.707214 
	C1086.132202,218.720276 1084.862183,235.118790 1086.585449,252.880676 
M607.072144,263.310028 
	C595.641235,235.053421 584.210266,206.796814 572.892639,178.820404 
	C567.747803,178.820404 563.909485,179.038284 560.108704,178.754089 
	C556.842834,178.509903 555.089478,179.455109 553.786987,182.683365 
	C540.266907,216.193848 526.538330,249.620178 512.963501,283.108734 
	C510.318085,289.634796 508.084991,296.328003 505.449066,303.524719 
	C510.561340,303.524719 514.871216,303.297485 519.144165,303.597290 
	C522.503113,303.832947 524.104187,302.803589 525.172058,299.456726 
	C527.791382,291.247131 531.043396,283.241028 533.756470,275.058716 
	C534.598572,272.519165 535.789795,271.777863 538.360229,271.794098 
	C555.007446,271.899445 571.656311,271.920959 588.302856,271.774353 
	C590.984924,271.750702 592.046875,272.758087 592.840759,275.082245 
	C595.735474,283.557587 598.731750,291.999786 601.839844,300.398895 
	C602.282166,301.594208 603.511719,303.329529 604.447021,303.375000 
	C610.150940,303.652405 615.875061,303.513580 622.117920,303.513580 
	C616.974304,289.783905 612.152100,276.912201 607.072144,263.310028 
M753.168823,202.553864 
	C753.168823,199.772781 753.168823,196.991714 753.168823,193.687897 
	C773.077332,193.687897 792.466125,193.687897 811.668091,193.687897 
	C811.668091,188.396576 811.668091,183.642838 811.668091,179.122711 
	C786.240967,179.122711 761.155518,179.122711 736.100464,179.122711 
	C736.100464,220.662613 736.100464,261.899323 736.100464,303.230072 
	C762.943176,303.230072 789.512756,303.230072 816.279419,303.230072 
	C816.279419,298.346893 816.279419,293.759827 816.279419,288.606812 
	C795.144409,288.606812 774.255859,288.606812 753.524048,288.606812 
	C753.524048,273.968262 753.524048,259.899017 753.524048,245.374405 
	C770.962769,245.374405 788.050720,245.374405 805.275269,245.374405 
	C805.275269,240.319122 805.275269,235.729507 805.275269,230.577515 
	C787.791199,230.577515 770.564697,230.577515 753.168640,230.577515 
	C753.168640,221.189941 753.168640,212.366257 753.168823,202.553864 
M922.147705,288.352722 
	C921.679932,286.962280 921.212219,285.571838 920.691528,284.024109 
	C910.129272,288.886871 899.376465,291.132996 888.021545,291.052155 
	C870.386536,290.926575 856.497314,281.434204 850.920959,264.658722 
	C846.013855,249.896423 845.485413,234.804031 850.280823,219.966110 
	C855.612610,203.468445 866.812927,193.493576 884.546509,191.622086 
	C896.864990,190.322052 908.262207,193.462585 919.537842,198.668594 
	C921.184021,193.873383 922.777039,189.232925 924.462036,184.324722 
	C922.290222,183.299759 920.593201,182.193375 918.732422,181.675552 
	C912.026672,179.809525 905.343750,177.709564 898.511780,176.475479 
	C871.723816,171.636612 845.629089,185.356049 834.822571,210.261810 
	C826.062988,230.449936 826.551025,251.109268 833.951721,271.578918 
	C839.758850,287.640839 851.383789,298.082611 867.445923,303.395111 
	C878.561646,307.071625 890.097778,306.875031 901.568054,305.392609 
	C909.760559,304.333771 917.846069,302.655762 925.343567,298.490265 
	C924.278320,295.089539 923.338379,292.088867 922.147705,288.352722 
M437.230194,303.299164 
	C457.178619,308.676086 476.458984,306.783661 495.598785,298.750397 
	C493.890411,293.359589 492.450043,288.814545 491.067474,284.451874 
	C485.436005,286.191986 480.327881,288.240814 475.022003,289.280029 
	C469.509491,290.359741 463.811829,290.832703 458.184540,290.924927 
	C440.567657,291.213715 426.608887,281.391907 421.040253,264.704712 
	C416.569427,251.307388 415.982452,237.550629 419.277008,223.834396 
	C424.271698,203.039978 439.284332,191.104218 460.105591,191.253418 
	C470.384827,191.327072 480.165863,193.929260 489.606873,198.784073 
	C491.261780,194.012329 492.872253,189.368774 494.564423,184.489532 
	C486.403381,179.579010 477.610596,177.973724 468.800873,176.426712 
	C441.779388,171.681747 415.855682,185.564697 404.692169,210.523575 
	C399.078827,223.073608 397.976562,236.270447 399.119446,249.627975 
	C401.247345,274.498047 411.685242,293.877014 437.230194,303.299164 
M707.470032,178.826553 
	C684.729614,178.826553 661.989258,178.826553 639.212646,178.826553 
	C639.212646,220.643112 639.212646,261.874359 639.212646,303.174561 
	C645.002869,303.174561 650.558044,303.174561 656.366455,303.174561 
	C656.366455,284.046600 656.366455,265.256897 656.366455,245.879425 
	C673.663208,245.879425 690.708984,245.879425 707.599976,245.879425 
	C707.599976,240.697418 707.599976,236.108093 707.599976,231.031250 
	C690.407288,231.031250 673.506042,231.031250 656.677612,231.031250 
	C656.677612,218.432999 656.677612,206.339218 656.677612,193.670334 
	C675.952271,193.670334 694.985413,193.670334 714.020874,193.670334 
	C714.020874,188.480362 714.020874,183.871399 714.020874,178.826553 
	C712.032959,178.826553 710.246887,178.826553 707.470032,178.826553 
M1028.585571,303.514893 
	C1031.667358,303.514893 1034.749146,303.514893 1038.165527,303.514893 
	C1038.165527,266.575439 1038.165527,230.341721 1038.165527,193.742432 
	C1051.263794,193.742432 1064.012451,193.742432 1076.977051,193.742432 
	C1076.977051,188.648239 1076.977051,183.923294 1076.977051,179.067535 
	C1045.020874,179.067535 1013.309692,179.067535 981.456543,179.067535 
	C981.456543,184.031097 981.456543,188.749191 981.456543,194.006165 
	C994.635010,194.006165 1007.514587,194.006165 1020.801147,194.006165 
	C1020.801147,230.769501 1020.801147,266.990143 1020.801147,303.514862 
	C1023.362976,303.514862 1025.507690,303.514862 1028.585571,303.514893 
M962.910095,180.070358 
	C957.115417,179.498154 951.320740,178.925949 945.629639,178.363968 
	C945.629639,220.780304 945.629639,261.982880 945.629639,303.196167 
	C951.571838,303.196167 957.145325,303.196167 962.930420,303.196167 
	C962.930420,262.232269 962.930420,221.609207 962.910095,180.070358 
z"/>
<path fill="#040404" opacity="1.000000" stroke="none" 
	d="
M261.052521,261.148621 
	C258.140533,290.593750 255.227371,319.575348 252.366684,348.562103 
	C251.222321,360.157776 250.374466,371.785492 249.052734,383.359924 
	C248.065979,392.001129 244.591125,395.061737 235.928452,395.076691 
	C190.782043,395.154480 145.635361,395.158264 100.488937,395.083008 
	C92.290489,395.069336 88.367073,391.530823 87.741829,383.611572 
	C85.789345,358.881683 84.029945,334.136627 82.176636,309.398865 
	C79.975037,280.012054 77.744400,250.627396 75.544243,221.240463 
	C74.164299,202.808990 72.843506,184.373077 71.442276,165.943253 
	C70.898468,158.790833 70.831184,158.728317 63.402248,158.692352 
	C58.980560,158.670975 55.088062,157.843521 53.177910,153.265488 
	C51.273319,148.700790 51.185986,144.180389 54.068897,139.958176 
	C56.865486,135.862411 61.285816,135.118225 65.628899,135.552765 
	C70.783257,136.068497 72.335999,134.086014 73.082489,129.170288 
	C74.825874,117.689934 78.848518,106.987953 86.772797,98.153305 
	C92.034996,92.286560 98.189255,87.973801 106.456459,87.750084 
	C117.934952,87.439461 129.413208,86.947670 140.893158,86.896950 
	C169.046829,86.772545 197.202454,86.729118 225.354858,86.954674 
	C231.612625,87.004807 238.206131,87.269867 244.040878,89.232323 
	C256.199860,93.321854 262.355194,103.600365 266.689880,114.918182 
	C268.522308,119.702644 270.136261,124.760971 270.630768,129.814087 
	C271.123596,134.850113 273.377136,135.432205 277.687286,135.631439 
	C281.257538,135.796478 285.349823,136.888977 288.123322,138.999603 
	C291.650787,141.683990 292.930573,146.111328 291.285217,150.749374 
	C289.522827,155.717163 285.679901,157.950821 280.717926,158.626556 
	C277.524750,159.061401 273.297943,158.346359 271.419647,160.130920 
	C269.647217,161.814957 270.266388,166.087631 269.962006,169.234024 
	C267.606018,193.589615 265.288605,217.948929 262.941711,242.305405 
	C262.351044,248.435760 261.697205,254.560028 261.052521,261.148621 
M160.500183,158.665955 
	C140.011536,158.666061 119.522301,158.746078 99.034737,158.597183 
	C95.057503,158.568268 93.830765,159.825378 94.141891,163.808731 
	C96.255142,190.864151 98.186150,217.933777 100.181358,244.998444 
	C103.155350,285.340179 106.201469,325.676910 109.009171,366.030182 
	C109.301216,370.227509 110.730766,371.220245 114.704468,371.205170 
	C150.850677,371.067963 186.997787,371.076080 223.144089,371.199341 
	C226.678925,371.211395 228.177811,370.357147 228.436127,366.627350 
	C229.217987,355.337952 230.247696,344.063263 231.340057,332.798279 
	C234.167175,303.643402 237.120819,274.500793 239.945908,245.345718 
	C242.546463,218.507751 245.027374,191.658218 247.603119,164.817810 
	C248.171692,158.893051 248.068527,158.672897 241.955826,158.670502 
	C215.137283,158.660019 188.318741,158.665955 160.500183,158.665955 
M193.500046,110.869751 
	C167.185791,110.869049 140.868546,111.090927 114.559036,110.736572 
	C106.306381,110.625427 101.359001,114.234200 98.294052,121.261360 
	C96.972389,124.291618 96.019875,127.499741 95.101364,130.685211 
	C93.531059,136.131119 93.710365,136.323135 99.424789,136.324478 
	C135.731812,136.332947 172.038849,136.328278 208.345871,136.329086 
	C220.170624,136.329361 231.995789,136.280899 243.819870,136.371201 
	C246.856628,136.394394 248.303482,135.673187 247.138275,132.327560 
	C245.937988,128.881180 245.329666,125.186882 243.811844,121.901581 
	C240.712280,115.192474 236.668243,110.292870 227.470047,110.741119 
	C216.503998,111.275513 205.492096,110.868774 193.500046,110.869751 
z"/>
<path fill="#3FDA9B" opacity="1.000000" stroke="none" 
	d="
M336.901306,288.000000 
	C336.901276,327.463501 336.901276,366.426971 336.901276,405.767212 
	C330.325500,405.767212 324.120361,405.767212 317.620789,405.767212 
	C317.620789,295.907379 317.620789,186.186005 317.620789,76.198792 
	C323.980988,76.198792 330.078400,76.198792 336.901337,76.198792 
	C336.901337,146.675476 336.901337,217.087738 336.901306,288.000000 
z"/>
<path fill="#030303" opacity="1.000000" stroke="none" 
	d="
M1086.492188,252.435883 
	C1084.862183,235.118790 1086.132202,218.720276 1094.951416,203.707214 
	C1104.997070,186.606232 1120.379272,177.497635 1139.783936,176.131271 
	C1177.129883,173.501633 1203.605835,198.081177 1204.959351,235.613831 
	C1205.625610,254.089767 1202.824341,271.707703 1190.477539,286.165131 
	C1174.198486,305.226898 1152.980713,309.838745 1129.380127,304.094391 
	C1106.802979,298.599121 1093.886230,283.157379 1088.081787,261.217957 
	C1087.361938,258.497345 1087.073730,255.662552 1086.492188,252.435883 
M1186.034912,249.196869 
	C1187.165894,235.548721 1186.074341,222.276245 1179.039917,210.112778 
	C1164.479004,184.934906 1126.246094,184.554428 1111.951660,209.849152 
	C1101.289917,228.715607 1101.241943,248.793030 1109.841919,268.391449 
	C1120.277588,292.173187 1151.411621,298.813965 1171.127319,281.848846 
	C1180.719238,273.595154 1184.459106,262.306244 1186.034912,249.196869 
z"/>
<path fill="#050505" opacity="1.000000" stroke="none" 
	d="
M607.201050,263.675293 
	C612.152100,276.912201 616.974304,289.783905 622.117920,303.513580 
	C615.875061,303.513580 610.150940,303.652405 604.447021,303.375000 
	C603.511719,303.329529 602.282166,301.594208 601.839844,300.398895 
	C598.731750,291.999786 595.735474,283.557587 592.840759,275.082245 
	C592.046875,272.758087 590.984924,271.750702 588.302856,271.774353 
	C571.656311,271.920959 555.007446,271.899445 538.360229,271.794098 
	C535.789795,271.777863 534.598572,272.519165 533.756470,275.058716 
	C531.043396,283.241028 527.791382,291.247131 525.172058,299.456726 
	C524.104187,302.803589 522.503113,303.832947 519.144165,303.597290 
	C514.871216,303.297485 510.561340,303.524719 505.449066,303.524719 
	C508.084991,296.328003 510.318085,289.634796 512.963501,283.108734 
	C526.538330,249.620178 540.266907,216.193848 553.786987,182.683365 
	C555.089478,179.455109 556.842834,178.509903 560.108704,178.754089 
	C563.909485,179.038284 567.747803,178.820404 572.892639,178.820404 
	C584.210266,206.796814 595.641235,235.053421 607.201050,263.675293 
M580.770020,241.789780 
	C575.152893,227.681000 569.535767,213.572220 563.918579,199.463440 
	C563.429993,199.408966 562.941406,199.354477 562.452820,199.299988 
	C554.959167,218.353775 547.465515,237.407547 539.815918,256.857727 
	C555.815491,256.857727 570.836609,256.857727 586.310791,256.857727 
	C584.436829,251.811462 582.714600,247.173767 580.770020,241.789780 
z"/>
<path fill="#050505" opacity="1.000000" stroke="none" 
	d="
M753.168701,203.048218 
	C753.168640,212.366257 753.168640,221.189941 753.168640,230.577515 
	C770.564697,230.577515 787.791199,230.577515 805.275269,230.577515 
	C805.275269,235.729507 805.275269,240.319122 805.275269,245.374405 
	C788.050720,245.374405 770.962769,245.374405 753.524048,245.374405 
	C753.524048,259.899017 753.524048,273.968262 753.524048,288.606812 
	C774.255859,288.606812 795.144409,288.606812 816.279419,288.606812 
	C816.279419,293.759827 816.279419,298.346893 816.279419,303.230072 
	C789.512756,303.230072 762.943176,303.230072 736.100464,303.230072 
	C736.100464,261.899323 736.100464,220.662613 736.100464,179.122711 
	C761.155518,179.122711 786.240967,179.122711 811.668091,179.122711 
	C811.668091,183.642838 811.668091,188.396576 811.668091,193.687897 
	C792.466125,193.687897 773.077332,193.687897 753.168823,193.687897 
	C753.168823,196.991714 753.168823,199.772781 753.168701,203.048218 
z"/>
<path fill="#030303" opacity="1.000000" stroke="none" 
	d="
M922.273071,288.720459 
	C923.338379,292.088867 924.278320,295.089539 925.343567,298.490265 
	C917.846069,302.655762 909.760559,304.333771 901.568054,305.392609 
	C890.097778,306.875031 878.561646,307.071625 867.445923,303.395111 
	C851.383789,298.082611 839.758850,287.640839 833.951721,271.578918 
	C826.551025,251.109268 826.062988,230.449936 834.822571,210.261810 
	C845.629089,185.356049 871.723816,171.636612 898.511780,176.475479 
	C905.343750,177.709564 912.026672,179.809525 918.732422,181.675552 
	C920.593201,182.193375 922.290222,183.299759 924.462036,184.324722 
	C922.777039,189.232925 921.184021,193.873383 919.537842,198.668594 
	C908.262207,193.462585 896.864990,190.322052 884.546509,191.622086 
	C866.812927,193.493576 855.612610,203.468445 850.280823,219.966110 
	C845.485413,234.804031 846.013855,249.896423 850.920959,264.658722 
	C856.497314,281.434204 870.386536,290.926575 888.021545,291.052155 
	C899.376465,291.132996 910.129272,288.886871 920.691528,284.024109 
	C921.212219,285.571838 921.679932,286.962280 922.273071,288.720459 
z"/>
<path fill="#040404" opacity="1.000000" stroke="none" 
	d="
M436.851685,303.179230 
	C411.685242,293.877014 401.247345,274.498047 399.119446,249.627975 
	C397.976562,236.270447 399.078827,223.073608 404.692169,210.523575 
	C415.855682,185.564697 441.779388,171.681747 468.800873,176.426712 
	C477.610596,177.973724 486.403381,179.579010 494.564423,184.489532 
	C492.872253,189.368774 491.261780,194.012329 489.606873,198.784073 
	C480.165863,193.929260 470.384827,191.327072 460.105591,191.253418 
	C439.284332,191.104218 424.271698,203.039978 419.277008,223.834396 
	C415.982452,237.550629 416.569427,251.307388 421.040253,264.704712 
	C426.608887,281.391907 440.567657,291.213715 458.184540,290.924927 
	C463.811829,290.832703 469.509491,290.359741 475.022003,289.280029 
	C480.327881,288.240814 485.436005,286.191986 491.067474,284.451874 
	C492.450043,288.814545 493.890411,293.359589 495.598785,298.750397 
	C476.458984,306.783661 457.178619,308.676086 436.851685,303.179230 
z"/>
<path fill="#030303" opacity="1.000000" stroke="none" 
	d="
M707.965454,178.826553 
	C710.246887,178.826553 712.032959,178.826553 714.020874,178.826553 
	C714.020874,183.871399 714.020874,188.480362 714.020874,193.670334 
	C694.985413,193.670334 675.952271,193.670334 656.677612,193.670334 
	C656.677612,206.339218 656.677612,218.432999 656.677612,231.031250 
	C673.506042,231.031250 690.407288,231.031250 707.599976,231.031250 
	C707.599976,236.108093 707.599976,240.697418 707.599976,245.879425 
	C690.708984,245.879425 673.663208,245.879425 656.366455,245.879425 
	C656.366455,265.256897 656.366455,284.046600 656.366455,303.174561 
	C650.558044,303.174561 645.002869,303.174561 639.212646,303.174561 
	C639.212646,261.874359 639.212646,220.643112 639.212646,178.826553 
	C661.989258,178.826553 684.729614,178.826553 707.965454,178.826553 
z"/>
<path fill="#020202" opacity="1.000000" stroke="none" 
	d="
M1028.118896,303.514893 
	C1025.507690,303.514862 1023.362976,303.514862 1020.801147,303.514862 
	C1020.801147,266.990143 1020.801147,230.769501 1020.801147,194.006165 
	C1007.514587,194.006165 994.635010,194.006165 981.456543,194.006165 
	C981.456543,188.749191 981.456543,184.031097 981.456543,179.067535 
	C1013.309692,179.067535 1045.020874,179.067535 1076.977051,179.067535 
	C1076.977051,183.923294 1076.977051,188.648239 1076.977051,193.742432 
	C1064.012451,193.742432 1051.263794,193.742432 1038.165527,193.742432 
	C1038.165527,230.341721 1038.165527,266.575439 1038.165527,303.514893 
	C1034.749146,303.514893 1031.667358,303.514893 1028.118896,303.514893 
z"/>
<path fill="#080808" opacity="1.000000" stroke="none" 
	d="
M962.920288,180.528259 
	C962.930420,221.609207 962.930420,262.232269 962.930420,303.196167 
	C957.145325,303.196167 951.571838,303.196167 945.629639,303.196167 
	C945.629639,261.982880 945.629639,220.780304 945.629639,178.363968 
	C951.320740,178.925949 957.115417,179.498154 962.920288,180.528259 
z"/>
<path fill="#FEFEFE" opacity="1.000000" stroke="none" 
	d="
M161.000183,158.665955 
	C188.318741,158.665955 215.137283,158.660019 241.955826,158.670502 
	C248.068527,158.672897 248.171692,158.893051 247.603119,164.817810 
	C245.027374,191.658218 242.546463,218.507751 239.945908,245.345718 
	C237.120819,274.500793 234.167175,303.643402 231.340057,332.798279 
	C230.247696,344.063263 229.217987,355.337952 228.436127,366.627350 
	C228.177811,370.357147 226.678925,371.211395 223.144089,371.199341 
	C186.997787,371.076080 150.850677,371.067963 114.704468,371.205170 
	C110.730766,371.220245 109.301216,370.227509 109.009171,366.030182 
	C106.201469,325.676910 103.155350,285.340179 100.181358,244.998444 
	C98.186150,217.933777 96.255142,190.864151 94.141891,163.808731 
	C93.830765,159.825378 95.057503,158.568268 99.034737,158.597183 
	C119.522301,158.746078 140.011536,158.666061 161.000183,158.665955 
M160.891998,301.813629 
	C169.292160,301.840912 177.962753,303.236755 186.042053,301.640259 
	C210.830444,296.742035 228.849121,271.839752 226.804840,246.906769 
	C224.613312,220.177872 203.839157,198.928680 178.121628,197.110352 
	C150.548676,195.160828 126.134216,214.060715 121.274246,241.117386 
	C116.457718,267.932220 133.332458,294.210144 160.891998,301.813629 
z"/>
<path fill="#FEFEFE" opacity="1.000000" stroke="none" 
	d="
M194.000061,110.869751 
	C205.492096,110.868774 216.503998,111.275513 227.470047,110.741119 
	C236.668243,110.292870 240.712280,115.192474 243.811844,121.901581 
	C245.329666,125.186882 245.937988,128.881180 247.138275,132.327560 
	C248.303482,135.673187 246.856628,136.394394 243.819870,136.371201 
	C231.995789,136.280899 220.170624,136.329361 208.345871,136.329086 
	C172.038849,136.328278 135.731812,136.332947 99.424789,136.324478 
	C93.710365,136.323135 93.531059,136.131119 95.101364,130.685211 
	C96.019875,127.499741 96.972389,124.291618 98.294052,121.261360 
	C101.359001,114.234200 106.306381,110.625427 114.559036,110.736572 
	C140.868546,111.090927 167.185791,110.869049 194.000061,110.869751 
z"/>
<path fill="#FEFEFE" opacity="1.000000" stroke="none" 
	d="
M1186.008301,249.659790 
	C1184.459106,262.306244 1180.719238,273.595154 1171.127319,281.848846 
	C1151.411621,298.813965 1120.277588,292.173187 1109.841919,268.391449 
	C1101.241943,248.793030 1101.289917,228.715607 1111.951660,209.849152 
	C1126.246094,184.554428 1164.479004,184.934906 1179.039917,210.112778 
	C1186.074341,222.276245 1187.165894,235.548721 1186.008301,249.659790 
z"/>
<path fill="#FCFCFC" opacity="1.000000" stroke="none" 
	d="
M580.881226,242.162918 
	C582.714600,247.173767 584.436829,251.811462 586.310791,256.857727 
	C570.836609,256.857727 555.815491,256.857727 539.815918,256.857727 
	C547.465515,237.407547 554.959167,218.353775 562.452820,199.299988 
	C562.941406,199.354477 563.429993,199.408966 563.918579,199.463440 
	C569.535767,213.572220 575.152893,227.681000 580.881226,242.162918 
z"/>
<path fill="#3D87FF" opacity="1.000000" stroke="none" 
	d="
M160.494186,301.693085 
	C133.332458,294.210144 116.457718,267.932220 121.274246,241.117386 
	C126.134216,214.060715 150.548676,195.160828 178.121628,197.110352 
	C203.839157,198.928680 224.613312,220.177872 226.804840,246.906769 
	C228.849121,271.839752 210.830444,296.742035 186.042053,301.640259 
	C177.962753,303.236755 169.292160,301.840912 160.494186,301.693085 
M143.716888,252.419464 
	C144.957321,270.702362 158.861404,282.540161 177.405563,281.101685 
	C192.566238,279.925659 205.447800,264.334717 203.886536,249.050934 
	C202.212173,232.659958 188.585556,220.513214 172.482697,221.057617 
	C156.532516,221.596863 144.021896,234.809814 143.716888,252.419464 
z"/>
<path fill="#FEFEFF" opacity="1.000000" stroke="none" 
	d="
M143.693665,251.953430 
	C144.021896,234.809814 156.532516,221.596863 172.482697,221.057617 
	C188.585556,220.513214 202.212173,232.659958 203.886536,249.050934 
	C205.447800,264.334717 192.566238,279.925659 177.405563,281.101685 
	C158.861404,282.540161 144.957321,270.702362 143.693665,251.953430 
z"/>
</svg>